<svg width="250" height="250" viewBox="0 0 512 512" fill="none" xmlns="http://www.w3.org/2000/svg">
    <path d="M174.604 360.387C195.313 357.35 214.941 349.212 231.724 336.707C244.721 343.278 259.08 346.703 273.644 346.707C348.744 343.598 381.281 271.208 382.443 213.987C384.861 186.119 385.8 158.656 375.324 132.866C349.087 67.1228 271.047 41.6254 215.884 93.668C170.281 88.0455 113.432 98.3926 80.4444 130.946C28.7644 179.986 28.4444 266.546 35.0044 344.786C37.2444 371.826 40.8444 399.346 45.6444 426.466C48.8537 454.926 83.9227 470.446 106.044 451.985C110.932 448.279 114.72 443.314 117.003 437.621C119.285 431.929 119.977 425.722 119.004 419.666L111.644 353.906C131.695 361.57 153.413 363.805 174.604 360.387ZM145.244 256.307C145.244 253.124 146.509 250.072 148.759 247.821C151.009 245.571 154.062 244.307 157.244 244.307C160.427 244.307 163.479 245.571 165.73 247.821C167.98 250.072 169.244 253.124 169.244 256.307C169.244 259.489 167.98 262.542 165.729 264.792C163.479 267.043 160.427 268.307 157.244 268.307C154.061 268.307 151.009 267.043 148.759 264.792C146.508 262.542 145.244 259.489 145.244 256.307Z" fill="white"/>
    <path d="M192.124 76.2271C198.364 76.2271 204.604 76.4671 210.604 77.0271C221.928 67.6623 234.82 60.3765 248.684 55.5071C230.56 48.9184 210.886 47.8726 192.166 52.5029C173.446 57.1331 156.527 67.23 143.564 81.5076C159.512 77.995 175.794 76.2244 192.124 76.2271Z" fill="white"/>
    <path d="M460.604 196.787C445.484 163.907 422.604 143.027 393.404 135.747C394.444 139.027 395.324 142.307 396.124 145.827C400.614 168.728 401.371 192.204 398.364 215.347C396.444 239.507 394.604 262.387 381.084 288.707C368.331 316.558 346.224 339.061 318.604 352.307C305.383 358.649 290.986 362.166 276.331 362.634C261.675 363.102 247.083 360.512 233.484 355.027C212.533 368.369 188.52 376.135 163.724 377.587L182.524 431.427C186.246 442.385 194.097 451.458 204.405 456.717C214.714 461.976 226.668 463.006 237.724 459.587C258.924 454.947 271.164 432.787 274.044 412.708C274.316 410.914 275.227 409.278 276.608 408.102C277.99 406.926 279.75 406.289 281.564 406.308H344.924C346.682 406.303 348.39 406.893 349.77 407.983C351.15 409.072 352.121 410.596 352.524 412.308C353.122 422.807 356.77 432.903 363.023 441.359C369.276 449.814 377.861 456.261 387.724 459.908C482.592 485.032 498.341 271.292 460.604 196.787Z" fill="white"/>
</svg>
